<svg xmlns="http://www.w3.org/2000/svg" width="125" height="110" viewBox="0 0 125 110">
  <defs>
    <style>
      .cls-1 {
        fill-rule: evenodd;
      }
    </style>
  </defs>
  <path id="basic-magic.svg" class="cls-1" d="M290,2031c5-5.16,13-11.69,16-29,2.967,5.57,17,29,17,29H290Zm-30,2c-20.879,0-38-18.02-38-39a38.092,38.092,0,0,1,34-37.79V1948s-9.373.82-13,3c2.252-3.57,17-28,17-28s15.25,25.25,17,28c-4.759-3.58-13-3-13-3v8.21A38.092,38.092,0,0,1,298,1994C298,2014.98,280.879,2033,260,2033Zm-28-39c0,15.37,13.078,28,24,28v-55C245.112,1967,232,1978.59,232,1994Zm32-27v55c10.922,0,24-12.63,24-28C288,1978.59,274.888,1967,264,1967Zm-66,64s13.032-23.43,16-29c1.333,16.14,11,23.84,16,29H198Z" transform="translate(-198 -1923)"/>
</svg>
