<svg xmlns="http://www.w3.org/2000/svg" width="115" height="108.156" viewBox="0 0 115 108.156">
  <defs>
    <style>
      .cls-1 {
        fill-rule: evenodd;
      }
    </style>
  </defs>
  <path id="ceremonial-class.svg" class="cls-1" d="M293,840c6,4.429,10.286,7.429,14,10-22.143,33-28.714,50-57,50-14.858,0-34.857-6-45-17,35.571-11.571,46-45,57-56-4.286-3-13-9-13-9l4-6s9.143,6.429,13,9c14.428-29.143,48-29,48-29l6,33S304.571,824.143,293,840Zm-61,38c-3,2.143-7,4.714-11,7,46.75,21.875,61.714-11.3,77-33-2.429-1.571-9-6-9-6S265.571,896.857,232,878Zm5-5c27.858,10,46-31,46-31l-16-11S247.428,864.571,237,873Zm71-73c-27.572,5.571-37,25-37,25l16,11s11.858-16.571,24-17c-3.429-2.714-10-8-10-8S304.858,804.857,308,800Z" transform="translate(-205 -791.844)"/>
</svg>
