<svg xmlns="http://www.w3.org/2000/svg" width="115.25" height="119" viewBox="0 0 115.25 119">
  <defs>
    <style>
      .cls-1 {
        fill-rule: evenodd;
      }
    </style>
  </defs>
  <path id="ceremonial-power.svg" class="cls-1" d="M320,653s1.936,18.8-12,24H294v23c-7.5.067-17,9.414-17,15v13l-15,13-15-13V715c0-5.534-9.492-15-16-15V677H217c-14.57-4.846-12-24-12-24h25s4.619-19.054-14-31c16.174,0,38,8.993,38,22h16c0-13.03,19.739-21.706,38-22-18.886,12.453-14,31-14,31h26Zm-43,49c2.941-4.607,8.059-6.738,11-8V676c-1.94,7.553-6.62,9-11,9v17Zm-23,23,8,7,8-7V711l-8,6-8-6v14Zm-17-31c2.941,1.262,8.059,4.393,11,9V685c-4.38,0-9.06-.447-11-8v17Zm-5-65c7.973,9.015,5,24,5,24h11S250.512,634.9,232,629Zm44,24h11s-1.973-14.985,6-24C274.488,634.9,276,653,276,653Zm-6,6v-9H254v9H212s2.444,11,11,11h31v26l8,5,8-5V670h31c10.732,0,11-11,11-11H270Z" transform="translate(-204.844 -622)"/>
</svg>
