<svg xmlns="http://www.w3.org/2000/svg" width="108" height="116" viewBox="0 0 108 116">
  <defs>
    <style>
      .cls-1 {
        fill-rule: evenodd;
      }
    </style>
  </defs>
  <path id="charm-power.svg" class="cls-1" d="M285,1060H239l-7-8-17,15v-31l-7-7V983l31-32h38v21h22l17,18v38Zm-63-9,5-4-5-4v8Zm87-59-13-13H277v7l11,10v20l-15,13h-7v14h-7v-14h-8l-15-13V995l11-9V972h7v18l-11,9v7c10.855,0,18,8.31,18,16h3c0-7.63,6.043-16,17-16v-6l-11-10V958H243l-28,28v40l27,27h40l27-27V992Zm-28,20c-6.5.02-8.061,5.53-10,10C272.161,1022.02,281.037,1013.08,281,1012Zm-27,10c-1.939-4.47-4.5-9.98-11-10C242.964,1013.08,252.839,1022.02,254,1022Z" transform="translate(-208 -951)"/>
</svg>
