<svg xmlns="http://www.w3.org/2000/svg" width="116" height="111" viewBox="0 0 116 111">
  <defs>
    <style>
      .cls-1 {
        fill-rule: evenodd;
      }
    </style>
  </defs>
  <path id="charm-class.svg" class="cls-1" d="M262,1134c-7.715-14.29-20.85-16-27-16-25.572,0-31,21.71-31,31,0,16.86,9.857,23.71,58,80,51-60.14,58-63.13,58-80,0-12.29-7.571-31-30-31C282.427,1118,271.143,1119.86,262,1134Zm0,6a15,15,0,1,1-15,15A15,15,0,0,1,262,1140Zm-4,37v36c-33.857-40.29-47-52-47-64,0-7,6.714-24,24-24,10.441,0,14.286,4.14,19,10C233,1145,235.714,1171.29,258,1177Zm8,0v36c33.857-40.29,47-52,47-64,0-7-6.714-24-24-24-10.441,0-14.286,4.14-19,10C291,1145,288.286,1171.29,266,1177Z" transform="translate(-204 -1118)"/>
</svg>
