<svg xmlns="http://www.w3.org/2000/svg" width="112.344" height="112.34" viewBox="0 0 112.344 112.34">
  <defs>
    <style>
      .cls-1 {
        fill-rule: evenodd;
      }
    </style>
  </defs>
  <path id="discard.svg" class="cls-1" d="M295,2156l7,7,9-9,7,45-45-7,9-9-7-7-19,19c-3.116,3.13-9.868,3.12-13,0l-35-35a8.854,8.854,0,0,1,0-12l59-59c3.116-3.13,9.868-3.12,13,0l35,35a8.854,8.854,0,0,1,0,12Zm14-29-33-33a4,4,0,0,0-5,0l-58,58a2.715,2.715,0,0,0,0,4l34,34a2.718,2.718,0,0,0,4,0l19-19-8-8v-9l29,29-4,5,23,3-3-23-5,4-40-40v-9l28,28,19-19A4,4,0,0,0,309,2127Z" transform="translate(-205.656 -2086.66)"/>
</svg>
