<svg xmlns="http://www.w3.org/2000/svg" width="116" height="116.56" viewBox="0 0 116 116.56">
  <defs>
    <style>
      .cls-1 {
        fill-rule: evenodd;
      }
    </style>
  </defs>
  <path id="divine-power.svg" class="cls-1" d="M317,2485c-5.491,6.93-12,15-12,15s0.459,6.16-2,10c-7.647,11.95-31.228,15.62-35,23-2.6,5.08-5.025-4-6-4-1.1,0-3.369,9.08-6,4-3.788-7.31-23.133-9.99-35-23-2.3-2.52-2-10-2-10s-6.066-7.45-12-15c8.45-9.69-3-30-3-30l7-11,2-17s25.227-9,33-9c9.825,0,12,4,16,4s5.95-4,16-4c7.788,0,33,9,33,9l2,17,7,11S308.055,2475.42,317,2485Zm-17,7,8-7s-4.25-7.75,0-20a109.039,109.039,0,0,0-12-4s-1.757,1.82-3,3c-6,2.5-1,7-1,7v12Zm-35,31s21.368-10.39,27-14c4.417-2.83,4-12,4-12l-8-8-8,4v9l-15,8v13Zm-3-21,9-5v-4l-9-5-10,5v4Zm-30,7c5.632,3.61,27,14,27,14v-13l-15-8v-9l-8-4-8,8S227.583,2506.17,232,2509Zm-16-24,8,7,8-9v-12s5-4.5-1-7c-1.243-1.18-3-3-3-3a109.039,109.039,0,0,0-12,4C220.25,2477.25,216,2485,216,2485Zm43-57-14-3-24,7-2,15-6,8,1,4,13-4s3.423-16.87,11-20c4.28-1.77,21,3,21,3v-10Zm-20,15-4,14,6,6v9l-2,3v7l10,5,9-5v-7l-8-3s1.039-11.47-8-19c4-1.19,9,.49,11,2,3.4,2.57,3,11,3,11h12s-0.325-8.41,3-11a14.024,14.024,0,0,1,11-2c-8.981,7.5-8,19-8,19l-8,3v7l9,5,10-5v-7l-2-3v-9l6-6-4-14-23,5Zm66,4-2-15-24-7-14,3v10s16.72-4.77,21-3c7.577,3.13,11,20,11,20l13,4,1-4Z" transform="translate(-204 -2418)"/>
</svg>
