<?xml version="1.0" standalone="no"?>
<!DOCTYPE svg PUBLIC "-//W3C//DTD SVG 20010904//EN"
 "http://www.w3.org/TR/2001/REC-SVG-20010904/DTD/svg10.dtd">
<svg version="1.0" xmlns="http://www.w3.org/2000/svg"
 width="442.000000pt" height="446.000000pt" viewBox="0 0 442.000000 446.000000"
 preserveAspectRatio="xMidYMid meet">
<metadata>
Created by potrace 1.13, written by Peter Selinger 2001-2015
</metadata>
<g transform="translate(0.000000,446.000000) scale(0.100000,-0.100000)"
fill="#000000" stroke="none">
<path d="M615 4449 c-236 -29 -440 -167 -543 -367 -79 -154 -72 51 -70 -2128
l3 -1950 700 1234 c385 679 703 1238 706 1244 4 7 28 1 64 -17 32 -15 85 -33
119 -40 36 -7 60 -17 58 -24 -1 -7 -55 -107 -119 -224 -64 -117 -158 -297
-209 -402 -154 -317 -200 -470 -157 -524 31 -38 114 -32 260 19 65 22 126 43
136 46 16 6 17 -17 17 -384 l0 -389 311 -269 c171 -148 314 -269 319 -269 5 0
148 121 319 269 l311 269 0 393 0 393 53 -23 c95 -43 220 -77 281 -78 51 -1
62 3 78 22 22 27 19 62 -14 170 -48 154 -219 517 -396 840 -44 80 -79 146 -77
148 2 2 31 10 65 18 34 8 86 26 117 40 35 17 58 23 62 16 3 -6 321 -565 706
-1244 l700 -1234 3 1993 c2 1942 2 1995 -17 2048 -76 215 -315 369 -632 406
-134 15 -475 7 -666 -17 l-143 -17 0 -776 c-1 -820 -1 -822 -47 -873 -22 -25
-90 -57 -121 -58 -22 0 -22 1 -6 24 44 68 64 252 40 366 -26 122 -75 211 -164
300 -126 126 -263 180 -457 180 -192 0 -326 -51 -446 -170 -124 -122 -172
-248 -173 -455 -1 -128 10 -182 48 -224 l21 -24 -45 7 c-59 9 -100 34 -125 76
-20 34 -20 51 -23 831 l-2 796 -103 12 c-282 31 -583 39 -742 20z m518 -285
l37 -7 -2 -350 -3 -350 -428 -183 c-236 -101 -433 -184 -438 -184 -13 0 -11
566 2 670 29 239 164 357 459 403 42 7 333 7 373 1z m2627 -19 c217 -51 334
-177 359 -385 13 -104 15 -670 2 -670 -5 0 -202 83 -438 184 l-428 183 -3 351
-2 351 27 4 c16 3 114 4 218 3 141 -2 209 -7 265 -21z m-1415 -889 c72 -33
129 -87 162 -154 24 -50 28 -69 28 -147 0 -84 -2 -94 -36 -155 -62 -112 -161
-170 -291 -170 -128 0 -228 60 -289 172 -32 59 -34 69 -34 153 0 70 5 100 21
136 77 166 275 241 439 165z m-1189 -278 c0 -115 4 -143 25 -204 l24 -71 -451
-717 c-249 -394 -455 -720 -458 -723 -3 -4 -5 319 -4 718 l3 724 425 202 c234
112 427 203 431 203 3 0 5 -60 5 -132z m2544 -71 l425 -202 3 -724 c1 -399 -1
-722 -4 -718 -3 3 -209 329 -458 724 l-452 718 18 47 c24 63 38 199 31 287 -3
40 -2 71 3 71 5 0 200 -91 434 -203z m-1632 -603 c96 -18 191 -18 289 2 43 8
84 16 91 17 12 2 297 -591 288 -600 -2 -3 -122 50 -265 116 l-261 120 -261
-120 c-143 -66 -263 -119 -265 -116 -2 2 50 121 117 263 67 142 130 278 141
302 15 33 24 42 36 37 9 -4 50 -13 90 -21z m307 -766 l165 -83 -1 -355 0 -355
-165 -143 -164 -143 -164 143 -165 143 0 355 -1 355 163 82 c89 45 163 82 164
82 2 1 77 -36 168 -81z"/>
</g>
</svg>
