<svg xmlns="http://www.w3.org/2000/svg" width="122" height="112" viewBox="0 0 122 112">
  <defs>
    <style>
      .cls-1 {
        fill-rule: evenodd;
      }
    </style>
  </defs>
  <path id="exhaust.svg" class="cls-1" d="M323,2290c-12.948,22.94-29.787,32.76-42.752,36.94L262,2361l-18.461-34.46c-12.354-4.42-28.371-14.36-42.539-36.54a83.916,83.916,0,0,1,13.136-18.35L202,2249H322l-11.993,22.39A81.134,81.134,0,0,1,323,2290Zm-9,0a105.715,105.715,0,0,0-7.961-11.21l-20.882,38.98C293.483,2313.62,303.321,2305.55,314,2290Zm-52,56,8.956-16.79A55.2,55.2,0,0,1,262,2330a49.891,49.891,0,0,1-9.011-.9Zm-13.371-25.07A51.02,51.02,0,0,0,262,2322c2.829,0,7.363.48,13.189-.73L290.267,2293H282s-1.063,18-20,18c-19,0-20-18-20-18h-8.267ZM275,2293h-6s-0.187,6-7,6c-6.937,0-7-6-7-6h-6s1.937,11,13,11S275,2293,275,2293Zm-65-3c10.631,14.79,20.279,22.76,28.46,27.06l-20.314-37.92A134.724,134.724,0,0,0,210,2290Zm4-34,5.575,10.45A74.017,74.017,0,0,1,235.392,2256H214Zm48,1c-6.6,0-20.47-2.31-38.715,16.41L230,2286h64l6.889-12.92C283.92,2255.99,268.274,2257,262,2257Zm27.236-1a71.211,71.211,0,0,1,15.347,10.16L310,2256H289.236Z" transform="translate(-201 -2249)"/>
</svg>
