<svg xmlns="http://www.w3.org/2000/svg" width="112" height="118" viewBox="0 0 112 118">
  <defs>
    <style>
      .cls-1 {
        fill-rule: evenodd;
      }
    </style>
  </defs>
  <path id="illusion-power.svg" class="cls-1" d="M318,1355a20.214,20.214,0,0,0-15-6c3.92,2.81,7.02,6.58,7,16-7.28-8.62-21.04-9.75-30-6,2.334,1.5,8,5,8,5v22l-14,12H250l-14-12v-22s5.484-3.49,8-5c-6.35-3.76-22.9-2.6-30,6,0-7.88,2.635-13.19,7-16-2.337,0-10.524,1.98-15,6,0-11.44,14.543-37,18-37-3.449-2.82-3-15-3-15s-0.945-13.94,9-23c3.457,2.89,18.2,21.02,21,24,4.111-1.52,11-2,11-2s8.571,0.63,12,2c2.516-2.64,14.03-17.24,20-24,9.89,10.1,10,24,10,24s-0.356,9.98-4,14C304.1,1318,318,1343.77,318,1355Zm-92-31c-0.093,1.87-6.511,13.88-8,18,3.236-2.44,17-.12,17,1-2.889.94-7.654,5.1-7,8,3.547-3.09,15.76-3,18,0v-14C241.054,1337,229.263,1329.24,226,1324Zm5-32c-1.68,2.11-3.427,18.89-1,21,1.68-1.35,8.245-7,13-7C240.014,1303.9,232.847,1294.11,231,1292Zm31,18c-7.841,0-24.313,4.66-30,10,5.326,7.77,21,12,21,12v31l-10,6v13l9,7v-12h20v12l9-7,0.04-13.22-10.08-6.74L271,1332s14.084-2.82,21-12C280.9,1312.32,270.767,1310,262,1310Zm32-18c-1.847,2.11-10.014,11.9-13,14,4.755,0,11.32,5.65,13,7C296.427,1310.89,295.68,1294.11,294,1292Zm-16,45v14c2.24-3,14.453-3.09,18,0,0.654-2.9-3.111-7.06-6-8,0-1.12,13.764-3.44,17-1-1.489-4.12-8.907-15.13-9-17C294.737,1330.24,282.946,1337,278,1337Z" transform="translate(-206 -1280)"/>
</svg>
