<svg xmlns="http://www.w3.org/2000/svg" width="82" height="111" viewBox="0 0 82 111">
  <defs>
    <style>
      .cls-1 {
        fill-rule: evenodd;
      }
    </style>
  </defs>
  <path id="illusion-class.svg" class="cls-1" d="M262,1560l-41-35v-47c0-15.95,18.125-29,31-29h21c11.125,0,30,9.63,30,29v47Zm-34-39,34,30v-28H245s-0.124-15.62,3-22H228v20Zm34-65c-40.375-3.25-34,38-34,38h23s8.25-24.75,34-33C278.124,1455.75,272.346,1455.89,262,1456Zm29,10c-38.376,16.12-38,50-38,50h16v29l27-24v-39S297.019,1476.3,291,1466Zm-13,41a10,10,0,1,1,10-10A10,10,0,0,1,278,1507Z" transform="translate(-221 -1449)"/>
</svg>
