<svg xmlns="http://www.w3.org/2000/svg" width="114" height="118" viewBox="0 0 114 118">
  <defs>
    <style>
      .cls-1 {
        fill-rule: evenodd;
      }
    </style>
  </defs>
  <path id="main-action.svg" class="cls-1" d="M303,386l-41,17-40-17-17-42,17-42,40-17,41,17,16,42Zm7.677-41.17L285,354l6,20-19-5-8.444,25.333L297,380ZM229,344c22.571,3.715,29.286,13.428,33,33,6.571-23.571,11.143-28.429,33-33-13.429-1.857-26.328-4.408-33-34C258.143,335.429,251.714,341.428,229,344Zm-1,36,32.437,14.31L252,369l-19,5,6-20-25.65-9.161Zm-14.677-36.829L239,334l-6-20,20,6,7.4-26.315L227,308ZM297,308l-33.2-14.227L272,320l19-6-6,20,25.677,9.171Z" transform="translate(-205 -285)"/>
</svg>
