<svg xmlns="http://www.w3.org/2000/svg" width="118" height="99.03" viewBox="0 0 118 99.03">
  <defs>
    <style>
      .cls-1 {
        fill-rule: evenodd;
      }
    </style>
  </defs>
  <path id="natural-power.svg" class="cls-1" d="M321,1710s-109.276.08-118,0c0-41.32,20.553-71.31,64-86,0-5.24,3.822-13,14-13,9.244,0,12,7,12,7s17.552,0.09,22,0c-0.083,30.44,1.695,41.47-19,61,17.518,16.13,25,23,25,23v8Zm-110-7h67l-15-15H252c0-12.92-8-21-19-21C212.8,1667,211,1692.63,211,1703Zm70-86a8,8,0,0,0,0,16c4.251,0,7-3.73,7-8S285.251,1617,281,1617Zm24,37c-17.363-4.88-21.551,12.44-15,19C294.022,1672.67,305.46,1660.08,305,1654Zm-25,11c0-4.93,2.529-19.98,19-20,7.219,0.03,8,3,8,3l1-22H295s-0.18,13-14,13c-6.571,0-12.143-4.16-14-8-8.689,1.9-34.912,17.44-42,30a15.455,15.455,0,0,1,8-2c22.357,0,26,22,26,22h8l22,22s17.376,0.03,21,0C285.571,1678.81,280,1676.38,280,1665Z" transform="translate(-203 -1611)"/>
</svg>
