<svg xmlns="http://www.w3.org/2000/svg" width="78.656" height="111" viewBox="0 0 78.656 111">
  <defs>
    <style>
      .cls-1 {
        fill-rule: evenodd;
      }
    </style>
  </defs>
  <path id="natural-class.svg" class="cls-1" d="M280,1853H266v19h-8v-19H244c-42.573-33.86-13.286-84.43,18-92C294.143,1767.71,322.146,1820.04,280,1853Zm-22-84s-14.429,7.71-17,15c5.429,3.71,17,12,17,12v-27Zm0,35-21-15a40.435,40.435,0,0,0-6,18c8.143,5.43,27,18,27,18v-21Zm0,30-27-19s0.143,16.86,15,31h12v-12Zm8,12h12c14.857-14.14,15-31,15-31l-27,19v12Zm0-77v27s11.571-8.29,17-12C280.429,1776.71,266,1769,266,1769Zm21,20-21,15v21s18.857-12.57,27-18A40.435,40.435,0,0,0,287,1789Z" transform="translate(-222.688 -1761)"/>
</svg>
