<svg xmlns="http://www.w3.org/2000/svg" width="101" height="104" viewBox="0 0 101 104">
  <defs>
    <style>
      .cls-1 {
        fill-rule: evenodd;
      }
    </style>
  </defs>
  <path id="sympathy-class.svg" class="cls-1" d="M294,3025c-8.949,0-19-3.15-19-16,0-10.98,9.876-16,19-16,8.017,0,12,4,12,4v-19l-57,10v33a20.877,20.877,0,0,1-19,12c-10,0-18-7.86-18-16,0-10,9.968-16,18-16,8.925,0,12,4,12,4v-62l71-14v85A20.936,20.936,0,0,1,294,3025Zm-1-25c-4.333.08-11,2.08-11,9,0,6.83,7.917,9,12,9s11-3.92,11-10C305,3002.17,297.333,2999.92,293,3000Zm-63,8c-4.333.08-11,2.08-11,9,0,6.83,7.917,9,12,9s11-3.92,11-10C242,3010.17,234.333,3007.92,230,3008Zm76-70-57,11v16l57-11v-16Zm0,23-57,11v9l57-10v-10Z" transform="translate(-212 -2929)"/>
</svg>
