<?xml version="1.0" standalone="no"?>
<!DOCTYPE svg PUBLIC "-//W3C//DTD SVG 20010904//EN"
 "http://www.w3.org/TR/2001/REC-SVG-20010904/DTD/svg10.dtd">
<svg version="1.0" xmlns="http://www.w3.org/2000/svg"
 width="458.000000pt" height="454.000000pt" viewBox="0 0 458.000000 454.000000"
 preserveAspectRatio="xMidYMid meet">
<metadata>
Created by potrace 1.13, written by Peter Selinger 2001-2015
</metadata>
<g transform="translate(0.000000,454.000000) scale(0.100000,-0.100000)"
fill="#000000" stroke="none">
<path d="M2793 4443 c-46 -114 -28 -108 -208 -69 -366 77 -749 58 -1090 -55
-330 -110 -599 -292 -842 -568 l-73 -84 52 -35 c29 -19 57 -38 62 -43 5 -4
-23 -42 -63 -85 -266 -285 -483 -691 -574 -1079 -80 -338 -74 -757 15 -1052
l13 -42 60 40 c54 37 60 39 66 22 4 -10 30 -90 59 -177 202 -622 521 -1078
836 -1195 54 -21 71 -21 1014 -21 606 0 960 4 960 10 0 8 -129 381 -215 621
l-28 77 -66 6 c-139 15 -276 78 -351 163 -78 89 -101 228 -63 385 l17 70 47
-6 c53 -7 173 7 240 30 l47 15 144 -103 c79 -57 201 -141 271 -187 l127 -84 0
-207 0 -208 267 -226 c147 -124 272 -225 278 -223 5 2 178 208 382 458 411
501 409 498 401 618 -4 54 -16 90 -68 201 -34 74 -226 488 -427 920 l-365 785
-61 58 c-34 32 -92 81 -128 109 l-66 50 20 77 c30 116 30 339 -1 444 -61 212
-184 385 -379 531 -69 52 -246 156 -266 156 -2 0 -22 -44 -44 -97z m-458 -313
c111 -12 267 -40 278 -50 5 -4 -18 -60 -50 -125 l-59 -117 -165 1 c-247 2
-438 -25 -629 -88 -149 -50 -289 -129 -375 -212 l-40 -38 -142 80 c-79 44
-143 84 -143 89 0 4 38 44 85 88 219 208 502 333 835 371 106 12 299 13 405 1z
m730 -91 c141 -151 162 -385 60 -679 -20 -56 -34 -108 -32 -114 3 -7 86 -75
185 -151 l180 -139 369 -838 c202 -461 376 -861 386 -890 24 -70 15 -114 -40
-196 -117 -172 -376 -523 -384 -520 -5 2 -72 56 -149 121 l-140 119 -2 210 -3
211 -190 139 c-104 77 -281 207 -392 289 l-202 150 -40 -21 c-64 -32 -176 -46
-276 -32 -268 36 -487 201 -562 422 -14 43 -18 84 -18 190 1 125 3 142 33 227
37 109 86 209 154 315 l50 78 -21 33 c-24 38 -82 82 -123 91 -119 27 -280
-230 -350 -557 -28 -132 -30 -374 -5 -484 62 -271 222 -469 459 -570 35 -15
64 -27 66 -28 1 -1 -5 -44 -14 -96 -33 -188 -1 -384 84 -515 85 -131 252 -249
413 -291 l66 -17 40 -123 41 -123 -498 0 -498 0 -54 41 c-472 366 -789 1096
-765 1764 7 190 28 298 87 448 86 221 209 431 344 589 311 364 779 524 1250
427 50 -10 94 -15 98 -11 6 6 179 373 259 550 l29 63 31 -18 c17 -10 50 -39
74 -64z m-2056 -681 c47 -28 91 -55 97 -59 6 -5 -16 -35 -59 -80 -185 -193
-331 -455 -401 -719 -40 -152 -57 -264 -63 -430 l-6 -155 -133 -57 c-73 -32
-137 -58 -143 -58 -17 0 -14 258 4 397 46 353 183 682 406 981 64 84 195 232
206 232 3 0 44 -23 92 -52z m-369 -1788 c20 -120 76 -338 119 -468 115 -343
258 -594 443 -774 l79 -78 -33 -20 c-18 -11 -36 -20 -39 -20 -13 0 -122 72
-170 111 -204 173 -438 584 -620 1091 -21 60 -39 114 -39 119 0 12 233 129
241 121 3 -4 12 -41 19 -82z"/>
<path d="M2836 2723 c25 -60 70 -169 101 -243 31 -74 59 -138 62 -142 4 -5 76
1 161 12 85 11 158 20 163 20 4 0 7 4 7 10 0 12 -150 352 -160 363 -7 8 -339
86 -367 87 -7 0 7 -44 33 -107z"/>
</g>
</svg>
